#Comment line ignore any data following # character
#Hierarchical Translation and Rotation (.htr) file
[Header]		#Header keywords are followed by a single value
FileType htr		#Single word string
DataType HTRS		#Translation followed by rotation and scale data
FileVersion 1		#integer
NumSegments 15		#integer
NumFrames 11		#integer
DataFrameRate 60		#integer, data frame rate in this file
EulerRotationOrder ZYX
CalibrationUnits mm
RotationUnits Degrees
GlobalAxisofGravity Y
BoneLengthAxis Y
ScaleFactor 1.000000
[SegmentNames&Hierarchy]
#CHILD	PARENT
1cou	1buste
1buste	1bassin
1brasG	1buste
1brasD	1buste
1avbrasG	1brasG
1avbrasD	1brasD
1mainG	1avbrasG
1mainD	1avbrasD
1bassin	GLOBAL
1cuisseG	1bassin
1cuisseD	1bassin
1moletG	1cuisseG
1moletD	1cuisseD
1piedG	1moletG
1piedD	1moletD
[BasePosition]
#SegmentName Tx, Ty, Tz, Rx, Ry, Rz, BoneLength
1cou	0.000002	394.639771	0.000003	47.447697	-6.500580	2.097482	232.574402
1buste	0.331046	98.159424	9.920088	5.813737	-6.959647	-0.900074	394.639771
1brasG	222.293304	333.760773	-3.143221	-5.521868	-4.449825	-174.025208	338.016541
1brasD	-186.675308	347.235016	-30.968008	-5.508482	16.777920	169.824814	318.101379
1avbrasG	0.000004	338.016571	-0.000002	34.403133	17.432653	23.106703	253.821075
1avbrasD	-0.000007	318.101410	-0.000013	32.381824	-10.529597	-11.344105	276.946075
1mainG	0.000006	253.821091	-0.000001	-3.773718	-0.485368	-1.748444	73.639816
1mainD	-0.000031	276.946106	-0.000010	-3.909555	0.199285	0.225476	80.942635
1bassin	396.031860	1037.839600	833.112305	178.297836	19.764000	-179.799622	97.859962
1cuisseG	108.625954	-0.934603	-40.474510	172.403458	-4.353497	-0.165467	517.714233
1cuisseD	-106.972656	-1.326527	-48.733826	172.076172	-12.757409	2.045154	501.698334
1moletG	0.000006	517.714233	-0.000009	157.872192	5.331374	176.676331	488.075745
1moletD	-0.000005	501.698303	0.000003	156.316269	3.295414	-177.725830	511.880615
1piedG	0.000002	488.075745	-0.000006	99.880898	-0.000004	0.000000	242.425140
1piedD	-0.000009	511.880646	-0.000013	102.622849	0.000000	0.000000	237.138092
#Beginning of Data. Separated by tabs
[1cou]
#Fr	Tx	Ty	Tz	Rx	Ry	Rz	SF
1	0.000021	-40.544098	-0.000005	-17.227253	-1.672913	-4.227305	0.947872
2	0.000018	-40.543884	-0.000014	-17.323843	-1.570278	-4.257612	0.947472
3	-0.000004	-40.494720	-0.000006	-17.352861	-1.516644	-4.229367	0.947915
4	0.000004	-40.618683	-0.000008	-17.239725	-1.519723	-4.121129	0.949051
5	0.000006	-40.865570	0.000008	-17.132917	-1.533789	-4.106352	0.949118
6	-0.000003	-41.079895	0.000007	-17.189596	-1.443772	-4.241954	0.947438
7	-0.000019	-41.128143	-0.000005	-17.370724	-1.336935	-4.433526	0.945624
8	-0.000007	-41.121643	0.000010	-17.549122	-1.399170	-4.627928	0.945929
9	-0.000003	-41.088593	0.000010	-17.527699	-1.511153	-4.575750	0.948068
10	0.000015	-41.031311	0.000013	-17.422588	-1.711218	-4.352517	0.948671
11	0.000004	-40.781067	-0.000009	-17.345022	-1.537975	-4.527628	0.951002
[1buste]
#Fr	Tx	Ty	Tz	Rx	Ry	Rz	SF
1	-0.221459	-12.851036	13.721989	9.957467	13.961244	1.346481	0.897263
2	-0.339581	-12.849190	13.715818	9.962157	13.942512	1.421930	0.897264
3	-0.409494	-12.813255	13.631853	9.913207	14.061881	1.482897	0.897388
4	-0.423405	-12.781960	13.400719	9.769696	14.259353	1.507796	0.897074
5	-0.249676	-12.843712	13.392656	9.770289	14.470775	1.429268	0.896448
6	-0.050704	-12.928642	13.498362	9.839630	14.542713	1.319212	0.895905
7	-0.112904	-13.010056	13.748209	10.002066	14.158360	1.314725	0.895783
8	-0.200200	-13.012764	13.764700	10.013813	14.010928	1.348088	0.895800
9	-0.319451	-12.934837	13.514282	9.856868	14.173549	1.435533	0.895883
10	-0.402264	-12.822914	13.158308	9.620560	14.276134	1.477200	0.896028
11	-0.367273	-12.764481	13.181890	9.624168	14.311069	1.460419	0.896662
[1brasG]
#Fr	Tx	Ty	Tz	Rx	Ry	Rz	SF
1	-56.177917	-35.210663	2.711273	43.847301	-25.537836	-6.080124	0.878256
2	-56.340408	-35.080109	2.862772	43.801350	-25.488569	-6.009773	0.878351
3	-56.378128	-34.952209	3.041441	43.766415	-25.465788	-6.015029	0.878547
4	-56.338135	-34.805664	3.179760	43.564827	-25.476543	-5.859785	0.878749
5	-56.257919	-34.975464	3.180208	43.413357	-25.535128	-5.727031	0.878863
6	-56.213821	-35.329926	2.840491	43.349205	-25.742214	-5.760579	0.878693
7	-56.213623	-35.634644	2.383491	43.257092	-26.020508	-5.808946	0.878342
8	-56.219666	-35.785248	2.020610	43.098595	-26.233170	-5.745711	0.877667
9	-56.360764	-35.682648	2.068783	42.826138	-26.289173	-5.493364	0.876960
10	-56.523849	-35.571503	2.078421	42.508121	-26.325106	-5.175552	0.876721
11	-56.754135	-35.191803	2.227411	42.362923	-26.392368	-5.028351	0.877060
[1brasD]
#Fr	Tx	Ty	Tz	Rx	Ry	Rz	SF
1	14.836914	-52.121552	46.461407	40.039719	5.417766	11.530674	0.915276
2	14.954025	-52.469391	46.648518	40.210419	5.547328	11.586590	0.914231
3	15.291473	-52.520569	46.951950	40.371075	5.638549	11.497060	0.913438
4	14.794556	-52.225555	46.097134	40.404968	5.675592	11.592072	0.915374
5	14.411423	-52.386505	45.557228	40.469471	5.714251	11.666644	0.916103
6	14.692780	-52.854980	45.745560	40.537800	5.709853	11.630935	0.915503
7	14.691833	-52.519623	45.551929	40.720440	5.562644	11.699700	0.916718
8	14.633240	-52.465271	45.387329	40.883663	5.475618	11.884600	0.916731
9	14.498276	-52.687073	45.502632	40.793594	5.440196	11.997108	0.915697
10	14.511520	-52.410919	45.326664	40.645329	5.367658	12.022425	0.917151
11	14.506241	-51.794312	45.210232	40.623821	5.314272	12.075737	0.919231
[1avbrasG]
#Fr	Tx	Ty	Tz	Rx	Ry	Rz	SF
1	-0.000003	-41.151520	0.000021	14.074137	-37.634243	-18.804504	1.107857
2	-0.000009	-41.119415	0.000008	14.113773	-37.660831	-18.829012	1.108422
3	0.000007	-41.053162	0.000013	14.155148	-37.622673	-18.810612	1.109156
4	-0.000002	-40.984955	0.000006	14.272715	-37.730343	-18.923182	1.109620
5	-0.000008	-40.946503	-0.000003	14.363240	-37.887894	-19.070173	1.109209
6	-0.000015	-41.003845	-0.000015	14.386322	-37.961426	-19.135702	1.109354
7	-0.000002	-41.122467	0.000016	14.538541	-38.065830	-19.258226	1.109808
8	-0.000012	-41.350647	-0.000003	14.756383	-38.332596	-19.515017	1.111091
9	0.000005	-41.589478	-0.000011	14.927737	-38.574371	-19.737579	1.112035
10	-0.000016	-41.670349	0.000019	15.291618	-38.962677	-20.116825	1.112580
11	-0.000002	-41.555634	-0.000021	15.973574	-39.466160	-20.696957	1.112387
[1avbrasD]
#Fr	Tx	Ty	Tz	Rx	Ry	Rz	SF
1	0.000017	-26.950958	-0.000012	20.560205	14.530308	7.115871	1.001928
2	-0.000002	-27.283325	0.000023	20.395870	14.557143	7.108506	1.000918
3	-0.000009	-27.535461	0.000023	20.264698	14.622284	7.138671	1.000112
4	0.000005	-26.919647	0.000028	20.145788	14.621616	7.110442	0.999393
5	-0.000001	-26.687805	-0.000002	20.062166	14.687116	7.154695	0.999275
6	0.000001	-26.878601	-0.000006	20.114950	14.812465	7.278235	0.999442
7	-0.000003	-26.492218	0.000018	20.095640	14.818711	7.280350	0.999013
8	0.000002	-26.487915	0.000002	20.047047	14.807412	7.253696	0.998204
9	0.000012	-26.816986	-0.000005	20.168783	14.722175	7.190199	0.998009
10	0.000012	-26.354340	0.000020	20.248705	14.660631	7.141940	0.997583
11	0.000028	-25.692719	-0.000025	20.360960	14.655848	7.162107	0.997926
[1mainG]
#Fr	Tx	Ty	Tz	Rx	Ry	Rz	SF
1	-0.000020	27.376328	0.000007	0.258889	0.393571	1.992485	1.102802
2	-0.000013	27.519852	-0.000009	0.261204	0.393819	1.993606	1.103375
3	-0.000002	27.706131	0.000028	0.264845	0.393710	1.992716	1.104089
4	-0.000009	27.823837	-0.000011	0.267997	0.394186	1.999457	1.104529
5	0.000009	27.719589	0.000009	0.267068	0.394666	2.008546	1.104112
6	-0.000013	27.756271	0.000038	0.267461	0.394561	2.011782	1.104273
7	0.000013	27.871567	0.000014	0.272109	0.394969	2.016100	1.104647
8	-0.000012	28.197159	-0.000017	0.279206	0.396246	2.027931	1.105905
9	0.000018	28.436722	0.000001	0.283945	0.397290	2.039374	1.106855
10	-0.000014	28.575150	0.000016	0.291792	0.399621	2.060519	1.107277
11	-0.000017	28.526077	0.000012	0.305965	0.402693	2.089672	1.106679
[1mainD]
#Fr	Tx	Ty	Tz	Rx	Ry	Rz	SF
1	0.000028	0.533905	-0.000020	0.847679	-0.145374	-0.708216	0.977921
2	0.000025	0.254211	-0.000000	0.836732	-0.146027	-0.710052	0.977038
3	0.000005	0.030945	-0.000003	0.828414	-0.146161	-0.714897	0.976334
4	0.000043	-0.168152	0.000000	0.821565	-0.146727	-0.714895	0.975684
5	0.000006	-0.200745	0.000020	0.817119	-0.147549	-0.716936	0.975648
6	0.000008	-0.154510	0.000005	0.819212	-0.148280	-0.722407	0.975806
7	0.000007	-0.273376	0.000013	0.816171	-0.149612	-0.722639	0.975398
8	0.000043	-0.497375	0.000026	0.811113	-0.149987	-0.722183	0.974614
9	0.000039	-0.551453	0.000001	0.817120	-0.149122	-0.718887	0.974274
10	0.000039	-0.669342	0.000006	0.821484	-0.149289	-0.718104	0.973723
11	0.000044	-0.574585	0.000019	0.830262	-0.147665	-0.718587	0.973929
[1bassin]
#Fr	Tx	Ty	Tz	Rx	Ry	Rz	SF
1	-70.829468	-96.157898	-1294.665039	177.777512	-73.497879	-149.561829	0.916585
2	-70.728241	-96.299744	-1294.789063	177.571716	-73.575867	-149.365173	0.917307
3	-70.577515	-96.547119	-1294.881104	177.403946	-73.535324	-149.168381	0.917247
4	-69.858948	-97.197632	-1294.244507	177.173096	-73.432243	-148.937408	0.917082
5	-69.071472	-97.540710	-1293.701904	177.220047	-73.259644	-149.125397	0.916186
6	-68.272675	-97.555420	-1293.601318	177.485565	-73.096672	-149.535278	0.915673
7	-67.691620	-97.357666	-1294.225342	177.646286	-73.278687	-149.845001	0.917642
8	-67.047333	-97.313538	-1294.633545	177.690140	-73.267044	-149.904861	0.918891
9	-66.126282	-97.508179	-1294.608154	177.448669	-73.067741	-149.582550	0.919009
10	-65.077576	-97.598694	-1294.449463	177.285797	-72.912468	-149.301987	0.919884
11	-64.858429	-96.774841	-1294.848511	177.267334	-72.825943	-149.254898	0.919053
[1cuisseG]
#Fr	Tx	Ty	Tz	Rx	Ry	Rz	SF
1	-6.354828	-2.133014	-7.122089	-50.535015	-22.587864	-8.004195	0.990032
2	-6.300468	-2.164519	-7.154217	-50.599354	-22.582598	-7.956544	0.991493
3	-6.390434	-2.183906	-7.310917	-50.718346	-22.711212	-7.854124	0.992945
4	-6.370316	-2.143817	-7.084560	-50.606510	-22.773897	-8.003940	0.991618
5	-6.423752	-2.092548	-7.014416	-50.291599	-22.640036	-8.407817	0.991329
6	-6.465736	-2.053710	-7.044346	-50.040134	-22.541910	-8.537904	0.991599
7	-6.220329	-2.082638	-6.853615	-49.961529	-22.275101	-8.335436	0.992358
8	-6.069946	-2.098790	-6.770088	-49.954414	-22.166344	-8.396447	0.992479
9	-6.037987	-2.093591	-6.670189	-49.939079	-22.278368	-8.620657	0.991295
10	-5.894295	-2.055210	-6.463825	-49.947460	-22.289728	-8.860334	0.989931
11	-6.037239	-2.058027	-6.555470	-50.056534	-22.415987	-8.778857	0.990505
[1cuisseD]
#Fr	Tx	Ty	Tz	Rx	Ry	Rz	SF
1	3.603317	-1.446197	6.620678	-47.988312	-6.753373	-7.203324	1.120767
2	3.506340	-1.397750	6.797043	-47.955013	-6.682611	-7.284271	1.121575
3	3.461380	-1.335220	7.310886	-47.926613	-6.760590	-7.309427	1.122025
4	3.578865	-1.335386	6.850437	-47.886822	-6.769176	-7.530460	1.123079
5	3.697327	-1.402660	6.602589	-47.758495	-6.872185	-7.500973	1.122831
6	3.724182	-1.469429	6.655113	-47.661331	-6.921284	-7.417723	1.122599
7	3.545700	-1.482161	6.509846	-47.629772	-6.617532	-7.343038	1.122907
8	3.432480	-1.461337	6.404537	-47.652599	-6.503150	-7.325773	1.122834
9	3.482246	-1.418613	6.092438	-47.655773	-6.593327	-7.421722	1.122928
10	3.500687	-1.389431	5.487247	-47.681835	-6.665793	-7.540555	1.123324
11	3.571228	-1.388489	5.757896	-47.641411	-6.878914	-7.367961	1.123047
[1moletG]
#Fr	Tx	Ty	Tz	Rx	Ry	Rz	SF
1	0.000007	-5.160400	0.000009	-32.516705	-8.361566	-1.205329	0.930254
2	0.000014	-4.404236	-0.000008	-32.621433	-8.348843	-1.220743	0.929051
3	0.000004	-3.652527	0.000016	-32.772591	-8.218814	-1.106606	0.928750
4	0.000002	-4.339539	-0.000001	-32.750076	-8.329770	-1.051148	0.929307
5	-0.000027	-4.489197	0.000028	-32.944393	-8.776069	-1.085090	0.929380
6	-0.000017	-4.349365	0.000004	-33.020023	-9.116085	-0.984795	0.929824
7	0.000002	-3.956299	0.000032	-33.065262	-9.182292	-0.801547	0.929397
8	0.000031	-3.893555	0.000037	-33.224247	-9.387372	-0.820737	0.929295
9	-0.000010	-4.506836	0.000005	-33.310081	-9.354073	-0.969649	0.928994
10	0.000016	-5.212646	0.000008	-33.440853	-9.409297	-0.985836	0.927725
11	0.000007	-4.915649	-0.000003	-33.693272	-10.404652	-0.055717	0.928841
[1moletD]
#Fr	Tx	Ty	Tz	Rx	Ry	Rz	SF
1	-0.000005	60.588684	0.000014	-37.232834	6.623332	-0.271785	0.883148
2	0.000017	60.993958	-0.000020	-37.308605	6.581231	-0.348036	0.882932
3	0.000021	61.219971	-0.000002	-37.351536	6.775901	-0.430588	0.882433
4	0.000006	61.748657	-0.000005	-37.478958	6.729894	-0.618218	0.881895
5	-0.000020	61.624207	-0.000010	-37.554401	6.577148	-0.541622	0.882073
6	0.000013	61.507751	-0.000002	-37.647594	6.452290	-0.536374	0.882154
7	0.000037	61.662415	-0.000017	-37.766121	6.156099	-0.534778	0.882374
8	0.000011	61.625610	0.000008	-37.820522	5.969700	-0.414936	0.883104
9	0.000000	61.672607	-0.000000	-37.793030	5.912773	-0.321569	0.883679
10	0.000026	61.871338	-0.000025	-37.750294	5.845938	-0.279612	0.884347
11	0.000030	61.732483	0.000017	-37.579388	6.165408	-0.211273	0.884892
[1piedG]
#Fr	Tx	Ty	Tz	Rx	Ry	Rz	SF
1	-0.000002	-34.041290	-0.000023	5.321390	-0.000002	-0.000007	1.030089
2	0.000001	-34.628540	0.000009	5.154511	0.000000	0.000001	1.026086
3	-0.000004	-34.775513	0.000044	5.185844	0.000000	0.000002	1.024712
4	-0.000016	-34.503479	0.000010	5.450997	-0.000001	-0.000009	1.026496
5	0.000010	-34.467834	0.000006	5.610271	-0.000001	-0.000003	1.028083
6	0.000017	-34.251038	0.000036	5.769377	0.000000	0.000002	1.029080
7	-0.000012	-34.459656	-0.000014	5.788383	-0.000001	-0.000010	1.028729
8	0.000014	-34.509338	0.000021	5.771190	-0.000001	-0.000007	1.027737
9	0.000014	-34.656158	0.000072	5.731523	-0.000000	-0.000001	1.028341
10	0.000005	-35.275787	0.000022	5.478426	0.000001	0.000002	1.028549
11	-0.000002	-34.730835	-0.000010	3.795692	-0.000001	-0.000007	1.025250
[1piedD]
#Fr	Tx	Ty	Tz	Rx	Ry	Rz	SF
1	0.000010	-59.814514	0.000003	10.500224	0.000001	0.000004	1.049414
2	0.000018	-59.925110	0.000014	10.602998	0.000001	-0.000001	1.050646
3	0.000003	-60.180359	0.000055	10.731103	-0.000001	0.000002	1.051253
4	0.000028	-60.455597	-0.000026	10.880426	-0.000001	-0.000004	1.050186
5	0.000023	-60.364410	0.000004	10.892229	0.000000	0.000000	1.050655
6	0.000033	-60.323273	0.000036	10.941888	0.000001	-0.000000	1.050052
7	0.000011	-60.210419	0.000015	10.880291	-0.000001	-0.000002	1.051419
8	-0.000001	-59.837006	-0.000001	10.867206	-0.000001	-0.000002	1.052111
9	0.000014	-59.542419	0.000028	10.863708	0.000002	0.000005	1.051270
10	0.000015	-59.200806	0.000023	10.895013	-0.000001	-0.000001	1.051205
11	0.000011	-58.921692	0.000036	10.804205	0.000000	0.000001	1.053325
[EndOfFile]
